<svg width="24" height="25" viewBox="0 0 24 25" fill="none" xmlns="http://www.w3.org/2000/svg">
<path d="M14.3002 8.86718C14.3002 9.21332 14.0141 9.49326 13.6627 9.49326H3.15444C2.8075 9.48567 2.52909 9.2079 2.52909 8.86718C2.52909 8.52646 2.80752 8.2476 3.15444 8.2411H13.6627C14.0141 8.2411 14.3002 8.52105 14.3002 8.86718ZM23.9998 2.51639V17.9449C23.9954 19.3327 22.8508 20.4568 21.4366 20.4601H17.0977V20.9603C18.0888 21.2685 18.702 22.2407 18.5429 23.2487C18.3838 24.2567 17.4999 25.0011 16.4602 25H3.28808C2.2495 25 1.36671 24.2567 1.20761 23.2498C1.04851 22.2418 1.66061 21.2706 2.65057 20.9625V20.4622H0.638609C0.286155 20.4622 0.0011031 20.1812 0 19.8362V2.66711C0.00110479 2.32097 0.286155 2.04103 0.638609 2.04103H19.5341V0.626096C19.5341 0.46008 19.6015 0.30057 19.7208 0.183377C19.8402 0.0661829 20.0026 0 20.1716 0H21.4367C22.8509 0.00325526 23.9954 1.12751 23.9998 2.51639ZM20.8091 15.4285H21.4366C21.8896 15.4285 22.3338 15.5457 22.7238 15.7703V2.51625C22.7216 1.81964 22.1471 1.2554 21.4366 1.25215H20.8091V15.4285ZM17.0469 22.3565C16.8923 22.2036 16.6812 22.1167 16.4614 22.1167H3.28811C2.83621 22.1254 2.47272 22.4878 2.47272 22.9316C2.47272 23.3765 2.83623 23.7389 3.28811 23.7476H16.4602C16.7961 23.7465 17.0966 23.5479 17.2248 23.2441C17.3529 22.9392 17.2823 22.5898 17.0469 22.3565ZM4.68998 17.6702V17.3132C4.18838 18.1845 3.92542 19.1697 3.92652 20.1712V20.8657H15.8227V20.1712C15.8238 19.1697 15.5609 18.1845 15.0582 17.3121V17.6702C15.0582 18.0152 14.7731 18.2962 14.4207 18.2962C14.0682 18.2962 13.7831 18.0152 13.7831 17.6702V15.7746C13.2362 15.3047 12.6065 14.9369 11.9248 14.6884L12.0518 18.4753V18.4742C12.0562 18.815 11.7822 19.096 11.4353 19.1068C11.0895 19.1166 10.7989 18.854 10.7812 18.5133L10.6166 13.6044H9.13167L8.96704 18.5133C8.94936 18.854 8.6588 19.1166 8.31186 19.1068C7.96602 19.096 7.69203 18.8149 7.69644 18.4742L7.8235 14.6873V14.6884C7.14179 14.9369 6.51203 15.3047 5.96512 15.7746V17.6702C5.95849 18.0109 5.67455 18.2832 5.32762 18.2832C4.98068 18.2832 4.6977 18.0109 4.68998 17.6702ZM22.3458 17.0528C22.1049 16.8151 21.7779 16.6806 21.4365 16.6806H20.1714C19.82 16.6806 19.5339 16.4007 19.5339 16.0556V3.29319H1.27592V19.2089H2.71667C2.91224 17.8493 3.50222 16.5755 4.41595 15.537C5.32969 14.4997 6.52957 13.7423 7.86978 13.3571C7.93055 12.782 8.42665 12.3458 9.01553 12.3523H10.7336C11.3225 12.3458 11.8186 12.782 11.8782 13.3571C13.2196 13.7423 14.4183 14.4997 15.3321 15.5381C16.2458 16.5754 16.8358 17.8503 17.0313 19.2089H21.4364C21.9568 19.2067 22.4241 18.8996 22.623 18.4277C22.8208 17.9567 22.7115 17.4141 22.3458 17.0528ZM3.15412 6.77283H8.4077C8.75905 6.77283 9.0452 6.49289 9.0452 6.14676C9.0452 5.80062 8.75905 5.52068 8.4077 5.52068H3.15412C2.80167 5.52068 2.51662 5.80062 2.51662 6.14676C2.51662 6.49289 2.80167 6.77283 3.15412 6.77283Z" fill="white"/>
</svg>
