<svg width="61" height="61" viewBox="0 0 61 61" fill="none" xmlns="http://www.w3.org/2000/svg">
<g clip-path="url(#clip0_62_101)">
<path d="M0 30.5C0 47.3447 13.6553 61 30.5 61C47.3447 61 61 47.3447 61 30.5C61 13.6553 47.3447 0 30.5 0C13.6553 0 0 13.6553 0 30.5Z" fill="#CF7B60"/>
<path fill-rule="evenodd" clip-rule="evenodd" d="M41.8261 32.2673C35.9971 31.9463 31.3672 27.1191 31.3672 21.2089L31.3711 21H33.131L33.1271 21.2089C33.1271 26.1444 36.968 30.1864 41.8261 30.5035V32.2673Z" fill="#112B1D"/>
<path fill-rule="evenodd" clip-rule="evenodd" d="M41.8261 30.4958C35.9971 30.8169 31.3672 35.6441 31.3672 41.5543L31.3711 41.7632H33.131L33.1271 41.5543C33.1271 36.6188 36.968 32.5768 41.8261 32.2596V30.4958Z" fill="#112B1D"/>
<path d="M41.8028 30.5035H14V32.2711H41.8028V30.5035Z" fill="#112B1D"/>
</g>
<defs>
<clipPath id="clip0_62_101">
<rect width="61" height="61" fill="white"/>
</clipPath>
</defs>
</svg>
