<svg width="21" height="13" viewBox="0 0 21 13" fill="none" xmlns="http://www.w3.org/2000/svg">
<path d="M18.8331 2.1H12.9999V0.5H18.8331V2.1ZM20.2715 10.1C19.9031 11.1376 18.5806 12.5 16.0207 12.5C13.459 12.5 11.384 11.1168 11.384 7.96C11.384 4.832 13.3215 3.224 15.939 3.224C18.5073 3.224 20.0756 4.6496 20.4181 6.7648C20.4831 7.1696 20.5089 7.7152 20.4973 8.4768H13.8082C13.9165 11.0456 16.7107 11.1264 17.6315 10.1H20.2715ZM13.8665 6.9H18.004C17.9165 5.6624 17.0573 5.1248 15.9398 5.1248C14.7182 5.1248 14.0424 5.7392 13.8665 6.9ZM5.88828 12.4904H0.5V0.5168H6.2941C10.8574 0.5816 10.9441 4.872 8.56075 6.0416C11.4449 7.0496 11.5415 12.4904 5.88828 12.4904ZM2.99997 5.3H5.98661C8.07658 5.3 8.40825 2.9 5.72661 2.9H2.99997V5.3ZM5.82578 7.7H2.99997V10.1128H5.78411C8.32992 10.1128 8.17408 7.7 5.82578 7.7Z" fill="#E99378"/>
</svg>
