<svg width="23" height="16" viewBox="0 0 23 16" fill="none" xmlns="http://www.w3.org/2000/svg">
<path d="M11.4993 12.6666C12.8014 12.6666 13.9082 12.2109 14.8197 11.2994C15.7311 10.388 16.1868 9.28121 16.1868 7.97913C16.1868 6.67704 15.7311 5.57027 14.8197 4.65881C13.9082 3.74735 12.8014 3.29163 11.4993 3.29163C10.1973 3.29163 9.09049 3.74735 8.17904 4.65881C7.26758 5.57027 6.81185 6.67704 6.81185 7.97913C6.81185 9.28121 7.26758 10.388 8.17904 11.2994C9.09049 12.2109 10.1973 12.6666 11.4993 12.6666ZM11.4993 10.7916C10.7181 10.7916 10.054 10.5182 9.50716 9.97131C8.96029 9.42444 8.68685 8.76038 8.68685 7.97913C8.68685 7.19788 8.96029 6.53381 9.50716 5.98694C10.054 5.44006 10.7181 5.16663 11.4993 5.16663C12.2806 5.16663 12.9447 5.44006 13.4915 5.98694C14.0384 6.53381 14.3118 7.19788 14.3118 7.97913C14.3118 8.76038 14.0384 9.42444 13.4915 9.97131C12.9447 10.5182 12.2806 10.7916 11.4993 10.7916ZM11.4993 15.7916C8.96463 15.7916 6.6556 15.0842 4.57227 13.6692C2.48893 12.2543 0.978516 10.3576 0.0410156 7.97913C0.978516 5.60065 2.48893 3.70395 4.57227 2.28902C6.6556 0.874091 8.96463 0.166626 11.4993 0.166626C14.0341 0.166626 16.3431 0.874091 18.4264 2.28902C20.5098 3.70395 22.0202 5.60065 22.9577 7.97913C22.0202 10.3576 20.5098 12.2543 18.4264 13.6692C16.3431 15.0842 14.0341 15.7916 11.4993 15.7916ZM11.4993 13.7083C13.4612 13.7083 15.2624 13.1918 16.903 12.1588C18.5436 11.1258 19.798 9.7326 20.666 7.97913C19.798 6.22565 18.5436 4.83242 16.903 3.79944C15.2624 2.76645 13.4612 2.24996 11.4993 2.24996C9.53754 2.24996 7.73633 2.76645 6.0957 3.79944C4.45508 4.83242 3.20074 6.22565 2.33268 7.97913C3.20074 9.7326 4.45508 11.1258 6.0957 12.1588C7.73633 13.1918 9.53754 13.7083 11.4993 13.7083Z" fill="white"/>
</svg>
