<svg width="28" height="26" viewBox="0 0 28 26" fill="none" xmlns="http://www.w3.org/2000/svg">
<mask id="path-1-inside-1_259_554" fill="white">
<path d="M18.48 14.6957V10.7391C18.48 9.18083 17.2239 7.91304 15.68 7.91304H4.48001C2.93608 7.91304 1.68 9.18083 1.68 10.7391V14.6957C0.753761 14.6957 0 15.4564 0 16.3913V25.4348C0 25.7468 0.25088 26 0.560001 26H19.6C19.9092 26 20.16 25.7468 20.16 25.4348V16.3913C20.16 15.4564 19.4063 14.6957 18.48 14.6957ZM2.8 10.7391C2.8 9.80426 3.55377 9.04348 4.48001 9.04348H15.68C16.6063 9.04348 17.36 9.80426 17.36 10.7391V14.6957H16.8C15.8738 14.6957 15.12 15.4564 15.12 16.3913V17.5217H5.04001V16.3913C5.04001 15.4564 4.28625 14.6957 3.36001 14.6957H2.8V10.7391ZM15.68 21.4783V24.8696H4.48001V21.4783H15.68ZM3.92001 20.3478V18.6522H16.24L16.2406 20.3478H3.92001ZM1.12 16.3913C1.12 16.0799 1.37144 15.8261 1.68 15.8261H3.36001C3.66857 15.8261 3.92001 16.0799 3.92001 16.3913V17.5217C3.30233 17.5217 2.8 18.0287 2.8 18.6522V20.3478C2.8 20.9713 3.30233 21.4783 3.92001 21.4783V24.8696H1.12V16.3913ZM19.04 24.8696H16.24V21.4783C16.8577 21.4783 17.36 20.9713 17.36 20.3478V18.6522C17.36 18.0287 16.8577 17.5217 16.24 17.5217V16.3913C16.24 16.0799 16.4915 15.8261 16.8 15.8261H18.48C18.7886 15.8261 19.04 16.0799 19.04 16.3913V24.8696ZM27.9832 7.21048L26.3032 0.42787C26.2411 0.176913 26.0171 0 25.76 0H21.28C21.023 0 20.799 0.176913 20.7368 0.42787L19.0568 7.21048C19.0148 7.37948 19.0529 7.55809 19.1588 7.69544C19.2646 7.83278 19.4276 7.91304 19.6 7.91304H20.16V12.7174C20.16 12.8734 20.2855 13 20.44 13C20.5946 13 20.72 12.8734 20.72 12.7174V7.91304H22.96V24.8696H21.28C20.9709 24.8696 20.72 25.1228 20.72 25.4348C20.72 25.7468 20.9709 26 21.28 26H25.76C26.0692 26 26.32 25.7468 26.32 25.4348C26.32 25.1228 26.0692 24.8696 25.76 24.8696H24.08V7.91304H27.44C27.6125 7.91304 27.7755 7.83278 27.8813 7.69544C27.9872 7.55809 28.0252 7.37948 27.9832 7.21048ZM20.3174 6.78261L21.7174 1.13043H25.3227L26.7227 6.78261H20.3174ZM6.72001 13.2826V12.7174C6.72001 12.5614 6.84545 12.4348 7.00001 12.4348C7.15457 12.4348 7.28001 12.5614 7.28001 12.7174V13.2826C7.28001 13.4386 7.15457 13.5652 7.00001 13.5652C6.84545 13.5652 6.72001 13.4386 6.72001 13.2826ZM7.28001 13.8478C7.28001 13.6918 7.40545 13.5652 7.56001 13.5652H8.12001C8.27457 13.5652 8.40001 13.6918 8.40001 13.8478C8.40001 14.0038 8.27457 14.1304 8.12001 14.1304H7.56001C7.40545 14.1304 7.28001 14.0038 7.28001 13.8478ZM7.28001 14.413V14.9783C7.28001 15.1343 7.15457 15.2609 7.00001 15.2609C6.84545 15.2609 6.72001 15.1343 6.72001 14.9783V14.413C6.72001 14.257 6.84545 14.1304 7.00001 14.1304C7.15457 14.1304 7.28001 14.257 7.28001 14.413ZM5.60001 13.8478C5.60001 13.6918 5.72545 13.5652 5.88001 13.5652H6.44001C6.59457 13.5652 6.72001 13.6918 6.72001 13.8478C6.72001 14.0038 6.59457 14.1304 6.44001 14.1304H5.88001C5.72545 14.1304 5.60001 14.0038 5.60001 13.8478ZM12.88 13.2826V12.7174C12.88 12.5614 13.0055 12.4348 13.16 12.4348C13.3146 12.4348 13.44 12.5614 13.44 12.7174V13.2826C13.44 13.4386 13.3146 13.5652 13.16 13.5652C13.0055 13.5652 12.88 13.4386 12.88 13.2826ZM11.76 13.8478C11.76 13.6918 11.8855 13.5652 12.04 13.5652H12.6C12.7546 13.5652 12.88 13.6918 12.88 13.8478C12.88 14.0038 12.7546 14.1304 12.6 14.1304H12.04C11.8855 14.1304 11.76 14.0038 11.76 13.8478ZM13.44 14.413V14.9783C13.44 15.1343 13.3146 15.2609 13.16 15.2609C13.0055 15.2609 12.88 15.1343 12.88 14.9783V14.413C12.88 14.257 13.0055 14.1304 13.16 14.1304C13.3146 14.1304 13.44 14.257 13.44 14.413ZM13.44 13.8478C13.44 13.6918 13.5655 13.5652 13.72 13.5652H14.28C14.4346 13.5652 14.56 13.6918 14.56 13.8478C14.56 14.0038 14.4346 14.1304 14.28 14.1304H13.72C13.5655 14.1304 13.44 14.0038 13.44 13.8478Z"/>
</mask>
<path d="M18.48 14.6957V10.7391C18.48 9.18083 17.2239 7.91304 15.68 7.91304H4.48001C2.93608 7.91304 1.68 9.18083 1.68 10.7391V14.6957C0.753761 14.6957 0 15.4564 0 16.3913V25.4348C0 25.7468 0.25088 26 0.560001 26H19.6C19.9092 26 20.16 25.7468 20.16 25.4348V16.3913C20.16 15.4564 19.4063 14.6957 18.48 14.6957ZM2.8 10.7391C2.8 9.80426 3.55377 9.04348 4.48001 9.04348H15.68C16.6063 9.04348 17.36 9.80426 17.36 10.7391V14.6957H16.8C15.8738 14.6957 15.12 15.4564 15.12 16.3913V17.5217H5.04001V16.3913C5.04001 15.4564 4.28625 14.6957 3.36001 14.6957H2.8V10.7391ZM15.68 21.4783V24.8696H4.48001V21.4783H15.68ZM3.92001 20.3478V18.6522H16.24L16.2406 20.3478H3.92001ZM1.12 16.3913C1.12 16.0799 1.37144 15.8261 1.68 15.8261H3.36001C3.66857 15.8261 3.92001 16.0799 3.92001 16.3913V17.5217C3.30233 17.5217 2.8 18.0287 2.8 18.6522V20.3478C2.8 20.9713 3.30233 21.4783 3.92001 21.4783V24.8696H1.12V16.3913ZM19.04 24.8696H16.24V21.4783C16.8577 21.4783 17.36 20.9713 17.36 20.3478V18.6522C17.36 18.0287 16.8577 17.5217 16.24 17.5217V16.3913C16.24 16.0799 16.4915 15.8261 16.8 15.8261H18.48C18.7886 15.8261 19.04 16.0799 19.04 16.3913V24.8696ZM27.9832 7.21048L26.3032 0.42787C26.2411 0.176913 26.0171 0 25.76 0H21.28C21.023 0 20.799 0.176913 20.7368 0.42787L19.0568 7.21048C19.0148 7.37948 19.0529 7.55809 19.1588 7.69544C19.2646 7.83278 19.4276 7.91304 19.6 7.91304H20.16V12.7174C20.16 12.8734 20.2855 13 20.44 13C20.5946 13 20.72 12.8734 20.72 12.7174V7.91304H22.96V24.8696H21.28C20.9709 24.8696 20.72 25.1228 20.72 25.4348C20.72 25.7468 20.9709 26 21.28 26H25.76C26.0692 26 26.32 25.7468 26.32 25.4348C26.32 25.1228 26.0692 24.8696 25.76 24.8696H24.08V7.91304H27.44C27.6125 7.91304 27.7755 7.83278 27.8813 7.69544C27.9872 7.55809 28.0252 7.37948 27.9832 7.21048ZM20.3174 6.78261L21.7174 1.13043H25.3227L26.7227 6.78261H20.3174ZM6.72001 13.2826V12.7174C6.72001 12.5614 6.84545 12.4348 7.00001 12.4348C7.15457 12.4348 7.28001 12.5614 7.28001 12.7174V13.2826C7.28001 13.4386 7.15457 13.5652 7.00001 13.5652C6.84545 13.5652 6.72001 13.4386 6.72001 13.2826ZM7.28001 13.8478C7.28001 13.6918 7.40545 13.5652 7.56001 13.5652H8.12001C8.27457 13.5652 8.40001 13.6918 8.40001 13.8478C8.40001 14.0038 8.27457 14.1304 8.12001 14.1304H7.56001C7.40545 14.1304 7.28001 14.0038 7.28001 13.8478ZM7.28001 14.413V14.9783C7.28001 15.1343 7.15457 15.2609 7.00001 15.2609C6.84545 15.2609 6.72001 15.1343 6.72001 14.9783V14.413C6.72001 14.257 6.84545 14.1304 7.00001 14.1304C7.15457 14.1304 7.28001 14.257 7.28001 14.413ZM5.60001 13.8478C5.60001 13.6918 5.72545 13.5652 5.88001 13.5652H6.44001C6.59457 13.5652 6.72001 13.6918 6.72001 13.8478C6.72001 14.0038 6.59457 14.1304 6.44001 14.1304H5.88001C5.72545 14.1304 5.60001 14.0038 5.60001 13.8478ZM12.88 13.2826V12.7174C12.88 12.5614 13.0055 12.4348 13.16 12.4348C13.3146 12.4348 13.44 12.5614 13.44 12.7174V13.2826C13.44 13.4386 13.3146 13.5652 13.16 13.5652C13.0055 13.5652 12.88 13.4386 12.88 13.2826ZM11.76 13.8478C11.76 13.6918 11.8855 13.5652 12.04 13.5652H12.6C12.7546 13.5652 12.88 13.6918 12.88 13.8478C12.88 14.0038 12.7546 14.1304 12.6 14.1304H12.04C11.8855 14.1304 11.76 14.0038 11.76 13.8478ZM13.44 14.413V14.9783C13.44 15.1343 13.3146 15.2609 13.16 15.2609C13.0055 15.2609 12.88 15.1343 12.88 14.9783V14.413C12.88 14.257 13.0055 14.1304 13.16 14.1304C13.3146 14.1304 13.44 14.257 13.44 14.413ZM13.44 13.8478C13.44 13.6918 13.5655 13.5652 13.72 13.5652H14.28C14.4346 13.5652 14.56 13.6918 14.56 13.8478C14.56 14.0038 14.4346 14.1304 14.28 14.1304H13.72C13.5655 14.1304 13.44 14.0038 13.44 13.8478Z" fill="url(#paint0_linear_259_554)" fill-opacity="0.1" stroke="white" stroke-width="2" mask="url(#path-1-inside-1_259_554)"/>
<defs>
<linearGradient id="paint0_linear_259_554" x1="15.6579" y1="29.4211" x2="15.6579" y2="-3.50726e-06" gradientUnits="userSpaceOnUse">
<stop stop-color="#E99378"/>
<stop offset="1" stop-color="#B66146"/>
</linearGradient>
</defs>
</svg>
