<svg width="27" height="22" viewBox="0 0 27 22" fill="none" xmlns="http://www.w3.org/2000/svg">
<path d="M26.6623 21.3247H21.0314V19.5746C22.7397 19.4027 24.0396 17.9687 24.0408 16.2565V8.75794C24.0408 6.91427 22.5418 5.41976 20.6929 5.41976C18.8441 5.41976 17.3451 6.91443 17.3451 8.75794V16.2565C17.3463 17.9687 18.6462 19.4027 20.3545 19.5746V21.3247H19.5872C19.4465 20.2309 18.5055 19.4166 17.3996 19.4305H17.3514C17.0724 18.8096 16.451 18.4138 15.7687 18.4188C15.2931 18.4252 14.8403 18.6224 14.5144 18.9676C13.7433 18.802 12.938 18.9613 12.2887 19.409C11.6394 19.8553 11.2057 20.5508 11.089 21.3285H10.3788V18.7552C11.7929 18.6566 13.0699 17.8777 13.8043 16.6688C13.8753 16.5107 13.8157 16.3248 13.6661 16.2376C13.5164 16.1516 13.3249 16.1908 13.2222 16.3311C12.6084 17.3402 11.5443 17.9915 10.3649 18.0812V15.0969L12.0859 13.5087C12.1683 13.4531 12.2228 13.3646 12.2343 13.2672C12.2444 13.1686 12.2127 13.0699 12.1442 12.9978C12.077 12.9258 11.9806 12.8866 11.8817 12.8916C11.7828 12.8967 11.6902 12.9447 11.6293 13.0231L10.3649 14.1865V11.5525L12.0859 9.9643C12.1594 9.90613 12.2038 9.82014 12.2114 9.72783C12.2178 9.63426 12.1861 9.54321 12.1227 9.47366C12.0605 9.40537 11.9705 9.36618 11.8779 9.36491C11.7841 9.36365 11.694 9.40158 11.6293 9.4686L10.365 10.632V8.00556L12.0859 6.42112C12.1531 6.36042 12.1924 6.2757 12.1962 6.18592C12.2 6.09614 12.1683 6.00762 12.1062 5.94187C11.9743 5.81162 11.7612 5.81162 11.6293 5.94187L10.365 7.0888V2.90701C10.365 2.72113 10.214 2.56937 10.0263 2.56937C9.83991 2.56937 9.68898 2.72112 9.68898 2.90701V7.0888L8.42713 5.94187C8.29524 5.81162 8.08218 5.81162 7.95027 5.94187C7.8894 6.00762 7.85642 6.09614 7.86023 6.18592C7.86403 6.2757 7.90335 6.36042 7.97056 6.42112L9.68898 8.00556V10.632L8.42713 9.4686C8.2889 9.35732 8.08598 9.3725 7.9655 9.50401C7.84502 9.63425 7.84756 9.83657 7.97057 9.9643L9.68899 11.5487V14.1752L8.42714 13.0232C8.28891 12.9119 8.08599 12.9271 7.96551 13.0573C7.84503 13.1888 7.84756 13.3899 7.97058 13.5189L9.689 15.1071V18.0813C7.79559 17.9308 6.33462 16.3565 6.33073 14.4634V4.31322C6.33199 2.30516 7.96545 0.67657 9.97924 0.675275H10.0769C12.0921 0.67654 13.7241 2.30526 13.7267 4.31322V14.4634C13.7267 14.6493 13.8776 14.7998 14.0641 14.7998C14.2518 14.7998 14.4027 14.6493 14.4027 14.4634V4.31322C14.3989 1.93337 12.4649 0.00388461 10.0769 0H9.97928C7.59251 0.00379365 5.65741 1.93347 5.65352 4.31322V14.4634C5.65986 16.7282 7.42139 18.6034 9.68903 18.7552V21.321L8.55526 21.3222C8.41322 20.2335 7.47856 19.4204 6.37777 19.4305H6.33085C6.05057 18.8096 5.42917 18.4138 4.74813 18.4189C4.26874 18.4176 3.81094 18.6111 3.47995 18.955C2.6759 18.7818 1.83636 18.9639 1.17688 19.4532C0.516136 19.9426 0.101449 20.6925 0.0367772 21.5106C0.0126813 21.5574 0 21.6093 0 21.6624C0 21.7522 0.035511 21.8381 0.0989202 21.9014C0.162329 21.9646 0.248569 22 0.337344 22H26.6626C26.8491 22 27 21.8483 27 21.6624C27 21.4765 26.8487 21.3247 26.6623 21.3247ZM18.0221 16.2666L18.0209 8.75801C18.0209 7.28609 19.2181 6.09365 20.693 6.09365C22.1679 6.09365 23.3651 7.28609 23.3651 8.75801V16.2566C23.3638 17.5957 22.3632 18.7262 21.0316 18.8944V16.8041L22.2922 15.6433C22.4304 15.5169 22.438 15.3032 22.3112 15.1666C22.1844 15.0287 21.9701 15.0212 21.8331 15.1476L21.0354 15.8823L21.0341 14.1562L22.2922 12.9992C22.4304 12.8727 22.438 12.659 22.3112 12.5225C22.1844 12.3859 21.9701 12.377 21.8331 12.5035L21.0354 13.2382L21.0341 11.5121L22.2922 10.3563C22.4304 10.2299 22.438 10.0162 22.3112 9.87833C22.1844 9.74176 21.97 9.73418 21.8331 9.86063L21.0316 10.5953V7.68185C21.0316 7.49596 20.8794 7.34421 20.6929 7.34421C20.5065 7.34421 20.3543 7.49595 20.3543 7.68185V10.5953L19.5592 9.86063H19.5604C19.4932 9.79867 19.4057 9.76705 19.3157 9.77085C19.2256 9.77464 19.1407 9.81384 19.0798 9.88086C18.9542 10.0174 18.9631 10.2299 19.1001 10.3563L20.3543 11.5134V13.2394L19.5592 12.5048L19.5604 12.5035C19.4932 12.4428 19.4057 12.4099 19.3157 12.4137C19.2256 12.4175 19.1407 12.458 19.0798 12.5237C18.9542 12.6616 18.9631 12.874 19.1001 12.9992L20.3543 14.1588V15.8823L19.5605 15.1476C19.4932 15.0869 19.4057 15.054 19.3157 15.0578C19.2256 15.0616 19.1407 15.1008 19.0798 15.1678C18.9543 15.3044 18.9631 15.5168 19.1001 15.6433L20.3543 16.8029V18.8944C19.0227 18.7249 18.0247 17.5957 18.0209 16.2566L18.0221 16.2666ZM13.8915 19.5783C14.1071 19.5783 14.3214 19.6086 14.5281 19.6693C14.6651 19.711 14.8147 19.6605 14.8997 19.5441C15.0975 19.2609 15.4222 19.0927 15.7684 19.0927C16.2453 19.0914 16.6625 19.4114 16.783 19.8716C16.8274 20.0436 16.9973 20.1536 17.1723 20.1207C17.9662 19.9981 18.7144 20.5254 18.8628 21.3119H11.7583C11.9549 20.2953 12.8541 19.5644 13.8915 19.5783ZM2.87092 19.5783C3.08525 19.5783 3.29957 19.6086 3.50628 19.6693C3.64451 19.711 3.79416 19.6605 3.87785 19.5441C4.07696 19.2621 4.40162 19.094 4.74784 19.0927C5.2247 19.0914 5.64192 19.4114 5.7624 19.8716C5.80552 20.0436 5.97546 20.1536 6.15046 20.1207C6.95068 19.988 7.70909 20.5178 7.85872 21.3119H0.736352C0.934192 20.2953 1.83227 19.5656 2.87092 19.5783Z" fill="white"/>
</svg>
