<svg width="84" height="84" viewBox="0 0 84 84" fill="none" xmlns="http://www.w3.org/2000/svg">
<path d="M84 42C84 65.196 65.196 84 42 84C18.804 84 0 65.196 0 42C0 18.804 18.804 0 42 0C65.196 0 84 18.804 84 42ZM2.1 42C2.1 64.0362 19.9638 81.9 42 81.9C64.0362 81.9 81.9 64.0362 81.9 42C81.9 19.9638 64.0362 2.1 42 2.1C19.9638 2.1 2.1 19.9638 2.1 42Z" fill="#F9F9F9" fill-opacity="0.8"/>
<path d="M1.05 42C0.470102 42 -0.00137049 42.4703 0.0131227 43.05C0.211617 50.9896 2.65791 58.7184 7.07827 65.3339C11.6933 72.2408 18.2528 77.6241 25.9273 80.8029C33.6018 83.9818 42.0466 84.8136 50.1938 83.193C58.341 81.5724 65.8247 77.5723 71.6985 71.6985C77.5723 65.8247 81.5724 58.341 83.193 50.1938C84.8136 42.0466 83.9818 33.6018 80.8029 25.9273C77.6241 18.2528 72.2408 11.6933 65.334 7.07828C58.7184 2.65791 50.9897 0.211618 43.05 0.0131229C42.4703 -0.00137041 42 0.470102 42 1.05V1.05C42 1.6299 42.4703 2.09856 43.05 2.11382C50.5742 2.31183 57.8971 4.63476 64.1673 8.82437C70.7288 13.2086 75.8429 19.4402 78.8628 26.7309C81.8827 34.0217 82.6729 42.0443 81.1333 49.7841C79.5938 57.5239 75.7937 64.6334 70.2136 70.2136C64.6334 75.7937 57.5239 79.5938 49.7841 81.1333C42.0443 82.6729 34.0217 81.8827 26.7309 78.8628C19.4402 75.8429 13.2086 70.7288 8.82436 64.1672C4.63476 57.8971 2.31183 50.5742 2.11382 43.05C2.09856 42.4703 1.6299 42 1.05 42V42Z" fill="#E99378"/>
<mask id="mask0_2017_62" style="mask-type:alpha" maskUnits="userSpaceOnUse" x="17" y="17" width="50" height="50">
<rect x="17" y="17" width="50" height="50" fill="#D9D9D9"/>
</mask>
<g mask="url(#mask0_2017_62)">
<path d="M35.2009 55.6052C34.5352 56.0288 33.6641 55.5506 33.6641 54.7615V29.2382C33.6641 28.4491 34.5352 27.9709 35.2009 28.3945L55.255 41.1562C55.8725 41.5491 55.8725 42.4505 55.255 42.8435L35.2009 55.6052ZM37.8307 47.1547C37.8307 47.9443 38.703 48.4224 39.3686 47.9977L47.4471 42.8428C48.0632 42.4497 48.0632 41.55 47.4471 41.1568L39.3686 36.002C38.703 35.5772 37.8307 36.0554 37.8307 36.845V47.1547Z" fill="white"/>
</g>
</svg>
