<svg width="59" height="44" viewBox="0 0 59 44" fill="none" xmlns="http://www.w3.org/2000/svg">
<path opacity="0.5" d="M26.6903 31.4286C26.6903 38.5813 21.6994 44 14.1046 44C6.50983 44 0 37.931 0 27.0936C0 13.6552 10.1987 2.16749 23.4354 0V8.0197C15.8406 9.53694 10.1987 14.9557 10.1987 21.2414C11.5007 20.3744 13.2367 19.7241 16.0576 19.7241C21.6994 19.7241 26.6903 23.8424 26.6903 31.4286ZM59 31.4286C59 38.5813 53.7921 44 46.1973 44C38.8195 44 32.0927 37.931 32.0927 27.0936C32.0927 13.6552 42.2914 2.16749 55.7451 0V8.0197C48.1503 9.53694 42.5084 14.9557 42.5084 21.0246C43.8104 20.1576 45.7634 19.7241 48.3673 19.7241C54.0091 19.7241 59 23.8424 59 31.4286Z" fill="white" fill-opacity="0.5"/>
</svg>
