<svg width="431" height="302" viewBox="0 0 431 302" fill="none" xmlns="http://www.w3.org/2000/svg">
<path d="M63.4701 195.107C22.5173 230.8 60.6029 273.052 100.286 247.219L277.935 131.578C386.287 61.0435 299.289 245.831 364.161 255.599C401.357 261.203 418.01 240.973 425.721 235.33C429.086 232.869 432.608 234.885 430.212 237.255C419.856 247.481 372.396 293.085 360.692 297.498C349.694 301.635 337.113 303.193 322.672 301.02C249.879 290.048 341.904 109.725 239.601 176.318L61.9514 291.959C12.109 324.405 -22.0751 257.353 16.8353 225.523L57.644 191.415L285.568 0.564888C286.511 -0.299279 287.899 -0.115971 288.841 0.735102L357.785 63.3479C360.037 65.3905 356.568 68.4936 354.329 66.438C286.039 3.72041 256.294 43.0138 230.882 61.253L63.4701 195.107ZM18.1183 240.502C4.13573 264.764 28.1339 295.848 59.7388 281.511C33.4101 288.241 11.7424 262.434 18.1183 240.502ZM25.6071 233.707C11.6376 257.956 35.6358 289.039 67.2276 274.702C40.899 281.432 19.2312 255.638 25.6071 233.707ZM33.0959 226.911C19.1264 251.173 43.1377 282.231 74.7295 267.894C48.4139 274.624 26.7331 248.856 33.0959 226.911ZM40.5847 220.089C26.6152 244.325 50.6004 275.435 82.2183 261.085C55.8635 267.828 34.2088 242.008 40.5847 220.089ZM52.25 288.319C25.9083 295.049 4.25356 269.229 10.6295 247.324C-3.33998 271.573 20.6582 302.657 52.25 288.319ZM364.502 290.807C354.565 293.819 343.41 294.748 330.828 292.85C262.788 282.611 340.307 123.146 264.345 158.878C331.457 138.203 264.542 287.56 323.353 296.411C338.828 298.742 352.47 296.647 364.502 290.807ZM296.985 126.236C364.109 105.535 297.194 254.905 356.005 263.769C371.506 266.1 385.083 263.992 397.141 258.165C387.204 261.164 376.049 262.093 363.48 260.195C295.427 249.956 372.972 90.4906 296.985 126.236ZM288.828 134.38C355.939 113.718 289.038 263.062 347.835 271.926C363.336 274.257 376.926 272.149 388.971 266.322C379.047 269.334 367.893 270.263 355.311 268.365C287.27 258.113 364.79 98.6609 288.828 134.38ZM280.659 142.55C347.796 121.862 280.868 271.232 339.679 280.084C355.154 282.414 368.757 280.319 380.802 274.493C370.878 277.491 359.723 278.421 347.154 276.522C279.101 266.283 356.646 106.818 280.659 142.55ZM272.502 150.707C339.626 130.046 272.711 279.39 331.522 288.254C347.01 290.584 360.587 288.476 372.645 282.65C362.721 285.661 351.567 286.578 338.985 284.692C270.944 274.44 348.477 114.988 272.502 150.707Z" fill="#1B323F"/>
</svg>
