<svg width="40" height="40" viewBox="0 0 40 40" fill="none" xmlns="http://www.w3.org/2000/svg">
<g filter="url(#filter0_b_62_654)">
<rect width="40" height="40" rx="20" fill="white" fill-opacity="0.08"/>
<rect x="0.5" y="0.5" width="39" height="39" rx="19.5" stroke="url(#paint0_linear_62_654)" stroke-opacity="0.8"/>
<path d="M15.783 22.766H18.355H18.505V22.916V29.854V30.0307L18.3306 30.002C15.9603 29.6119 13.8058 28.3916 12.2523 26.5594C10.6987 24.7271 9.84727 22.4021 9.85 19.9999C9.85005 14.3821 14.3822 9.85 20 9.85C25.6178 9.85 30.1499 14.3821 30.15 19.9998L15.783 22.766ZM15.783 22.766V20.173H18.355H18.505V20.023V18.1C18.505 16.5292 18.8876 15.427 19.5701 14.7172C20.2516 14.0085 21.2562 13.666 22.555 13.666C23.6614 13.666 24.3082 13.7372 24.661 13.7832V16.026H23.006C22.3857 16.026 21.959 16.326 21.6958 16.7848C21.4381 17.2339 21.338 17.8306 21.338 18.443V20.023V20.173H21.488H24.608L24.2074 22.766H21.488H21.338V22.916V29.879V30.0529L21.51 30.0274C23.9136 29.6706 26.1088 28.4614 27.695 26.6205C29.2811 24.7797 30.1524 22.4299 30.15 20L15.783 22.766ZM8.15 20C8.15 13.4668 13.4668 8.15 20 8.15C26.5332 8.15 31.85 13.4668 31.85 20C31.85 26.5332 26.5332 31.85 20 31.85C13.4668 31.85 8.15 26.5332 8.15 20Z" fill="#E99378" stroke="#21201E" stroke-width="0.3"/>
</g>
<defs>
<filter id="filter0_b_62_654" x="-40" y="-40" width="120" height="120" filterUnits="userSpaceOnUse" color-interpolation-filters="sRGB">
<feFlood flood-opacity="0" result="BackgroundImageFix"/>
<feGaussianBlur in="BackgroundImageFix" stdDeviation="20"/>
<feComposite in2="SourceAlpha" operator="in" result="effect1_backgroundBlur_62_654"/>
<feBlend mode="normal" in="SourceGraphic" in2="effect1_backgroundBlur_62_654" result="shape"/>
</filter>
<linearGradient id="paint0_linear_62_654" x1="20" y1="0" x2="20" y2="40" gradientUnits="userSpaceOnUse">
<stop stop-color="#E99378"/>
<stop offset="0.0001" stop-color="#E99378" stop-opacity="0.95"/>
<stop offset="0.0002" stop-color="#E99378"/>
<stop offset="1" stop-color="#E99378" stop-opacity="0.5"/>
</linearGradient>
</defs>
</svg>
