<svg width="80" height="80" viewBox="0 0 80 80" fill="none" xmlns="http://www.w3.org/2000/svg">
<g filter="url(#filter0_bd_62_648)">
<rect x="20" y="16" width="40" height="40" rx="20" fill="white" fill-opacity="0.08" shape-rendering="crispEdges"/>
<rect x="20.5" y="16.5" width="39" height="39" rx="19.5" stroke="url(#paint0_linear_62_648)" stroke-opacity="0.8" shape-rendering="crispEdges"/>
<path d="M40 40C41.0609 40 42.0783 39.5786 42.8284 38.8284C43.5786 38.0783 44 37.0609 44 36C44 34.9391 43.5786 33.9217 42.8284 33.1716C42.0783 32.4214 41.0609 32 40 32C38.9391 32 37.9217 32.4214 37.1716 33.1716C36.4214 33.9217 36 34.9391 36 36C36 37.0609 36.4214 38.0783 37.1716 38.8284C37.9217 39.5786 38.9391 40 40 40Z" stroke="#E99378" stroke-width="1.5" stroke-linecap="round" stroke-linejoin="round"/>
<path d="M31 40V32C31 30.6739 31.5268 29.4021 32.4645 28.4645C33.4021 27.5268 34.6739 27 36 27H44C45.3261 27 46.5979 27.5268 47.5355 28.4645C48.4732 29.4021 49 30.6739 49 32V40C49 41.3261 48.4732 42.5979 47.5355 43.5355C46.5979 44.4732 45.3261 45 44 45H36C34.6739 45 33.4021 44.4732 32.4645 43.5355C31.5268 42.5979 31 41.3261 31 40Z" stroke="#E99378" stroke-width="1.5"/>
<path d="M45.5 30.51L45.51 30.499" stroke="#E99378" stroke-width="1.5" stroke-linecap="round" stroke-linejoin="round"/>
</g>
<defs>
<filter id="filter0_bd_62_648" x="-20" y="-24" width="120" height="120" filterUnits="userSpaceOnUse" color-interpolation-filters="sRGB">
<feFlood flood-opacity="0" result="BackgroundImageFix"/>
<feGaussianBlur in="BackgroundImageFix" stdDeviation="20"/>
<feComposite in2="SourceAlpha" operator="in" result="effect1_backgroundBlur_62_648"/>
<feColorMatrix in="SourceAlpha" type="matrix" values="0 0 0 0 0 0 0 0 0 0 0 0 0 0 0 0 0 0 127 0" result="hardAlpha"/>
<feOffset dy="4"/>
<feGaussianBlur stdDeviation="10"/>
<feComposite in2="hardAlpha" operator="out"/>
<feColorMatrix type="matrix" values="0 0 0 0 0.894118 0 0 0 0 0.168627 0 0 0 0 0.145098 0 0 0 0.08 0"/>
<feBlend mode="normal" in2="effect1_backgroundBlur_62_648" result="effect2_dropShadow_62_648"/>
<feBlend mode="normal" in="SourceGraphic" in2="effect2_dropShadow_62_648" result="shape"/>
</filter>
<linearGradient id="paint0_linear_62_648" x1="40" y1="16" x2="40" y2="56" gradientUnits="userSpaceOnUse">
<stop stop-color="#E99378"/>
<stop offset="0.0001" stop-color="#E99378" stop-opacity="0.95"/>
<stop offset="0.0002" stop-color="#E99378"/>
<stop offset="1" stop-color="#E99378" stop-opacity="0.5"/>
</linearGradient>
</defs>
</svg>
